<?xml version="1.0" encoding="UTF-8"?>
<svg id="Layer_2" xmlns="http://www.w3.org/2000/svg" viewBox="0 0 1955.84 1421.87">
  <defs>
    <style>
      .cls-1 {
        fill: #3f320c;
      }

      .cls-2 {
        stroke: #98b545;
        stroke-miterlimit: 10;
        stroke-width: 5px;
      }

      .cls-2, .cls-3 {
        fill: #5a8500;
      }

      .cls-4 {
        fill: #f5ca2d;
      }

      .cls-5 {
        fill: #86a940;
      }

      .cls-6 {
        fill: #3b5c04;
      }

      .cls-7 {
        fill: #2c2200;
      }
    </style>
  </defs>
  <g id="Layer_1-2" data-name="Layer_1">
    <path class="cls-7" d="M1246.5,538.8c-54.05,20.72-101.28,29.98-133.05,34.56,66.47,32.01,112.86,57.92,143.42,76.03,16.96,10.04,39.53,21.67,84.67,44.92,12.4,6.39,29.5,15.1,53.56,22.47,17.53,5.36,32.59,8.13,43.2,9.66-17.86,32.49-35.71,64.98-53.57,97.47-5.3-12.72-14.28-30.33-29.37-48.38-15.39-18.42-31.47-30.52-43.2-38.02-99.67-56.45-180.61-101.35-235-131.32-157.46-86.77-166.36-89.2-210.81-119.23-87.77-59.3-113.22-90.48-188.34-127.87-16.62-8.27-50.07-24.01-93.31-51.84-36.91-23.74-35.63-27.14-69.12-48.38-51.15-32.44-61.29-29.08-114.04-62.2-24.16-15.17-25.25-17.9-69.12-48.39-1.4-.97-2.79-1.93-4.17-2.89-55.65-38.5-121.74-59.04-189.41-59.04H0V0c50.61,2.04,113.18,8.75,183.12,26.04,67.99,16.8,125.08,39.18,170.04,60.31,184.95,114.75,287.11,179.86,345.58,220.9,78.46,55.08,162.39,102,241.91,155.52,5.97,4.01,31.14,21,67.39,38.01,22.46,10.54,48,22.54,76.03,27.65,45.55,8.31,84.56-3.92,115.77-15.55,102.6-38.23,184.48-93.62,202.17-105.4,57.67-38.4,143.7-86.47,264.38-124.42l-74.3,76.03c-72.86,31.82-130.05,62.33-169.34,84.67-74.54,42.38-109.18,69.32-176.25,95.04Z"/>
    <g id="pod1">
      <path id="stem" class="cls-1" d="M372.16,160.38c4.56,21.83,8.55,45.35,11.55,70.43,1.6,13.34,2.82,26.3,3.72,38.81,2.5.7,9.15,2.2,16.93-.41,6.88-2.31,11.02-6.61,12.73-8.61-5.76-31.68-11.52-63.36-17.28-95.04l-27.65-5.18Z"/>
      <path id="pod" class="cls-6" d="M454.08,715.28c19.48-3.3,30.89-19.42,51.26-49.12,22.71-33.12,54.23-79.09,63-148.43,9.95-78.66-7.1-205.5-91.83-248.81-22.88-11.69-45.21-14.49-60.87-14.95-15.18-.59-41.71.56-66.21,16.02-71.22,44.94-59.05,169.1-55.53,205.02,2.67,27.25,10.59,75.22,38.44,127.07,8.51,15.84,65.89,122.65,121.73,113.19Z"/>
    </g>
    <g id="pod2">
      <path id="stem-2" data-name="stem" class="cls-1" d="M685.47,316.85c3.17,13.44,5.67,27.83,7.1,43.05.76,8.09,1.16,15.92,1.28,23.45,2.44.68,8.96,2.26,16.86,1.52,6.98-.65,11.37-2.78,13.2-3.79-3.75-19.42-7.51-38.84-11.26-58.26l-27.17-5.96Z"/>
      <path id="pod-2" data-name="pod" class="cls-5" d="M821.42,863.71c16.92-11.39,18.73-30.21,27.76-59.8,12.71-41.62,21.84-45.95,29.9-71.54,10.77-34.19,1.98-72.74-16.02-148.43-19.58-82.34-30-124.2-60.87-158.04-22.25-24.4-46.69-38.7-64.07-46.98-10.41-4-41.42-14.34-70.48,0-14.81,7.31-24.44,18.73-35.24,36.31-33.75,54.95-41.79,109.65-42.71,116.39-4.24,30.9-13.01,101.87,23.49,179.4,14.54,30.89,42.09,59.39,97.17,116.39,18.89,19.55,40.97,40.83,72.61,43.78,7.93.74,24.29,2.05,38.44-7.47Z"/>
    </g>
    <g id="pod3">
      <path id="stem-3" data-name="stem" class="cls-1" d="M1014.93,569.57c2.18,19.07,29.42,21.79,32.17,53.39.71,8.1,1.16,15.92,1.28,23.45,2.44.68,8.96,2.26,16.86,1.52,6.98-.65,11.37-2.78,13.2-3.79-3.75-19.42-7.51-38.84-11.26-58.26l-52.25-16.31Z"/>
      <path id="pod-3" data-name="pod" class="cls-4" d="M1090.14,1107.41c3.99.66,18.84,3.12,32.32-4.79,12.5-7.33,13.4-17.45,26.34-35.91,10.78-15.38,19.62-21.86,27.53-29.93,31.14-31.74,42.65-82.18,49.08-113.72,8.61-42.26,14.23-69.82,7.18-106.54-6.69-34.85-24.01-60.74-58.66-112.52-13.32-19.91-29.38-41.34-56.26-57.46-13.65-8.19-23.79-11.23-26.34-11.97-35.01-10.14-64.74,2.22-70.63,4.79-10.13,4.43-32.74,14.38-44.29,37.11-9.31,18.33-1.68,25.79-10.77,56.26-5.86,19.62-10.85,22.67-19.15,43.09-11.74,28.89-14.2,53.45-15.56,67.04-6.76,67.4,18.84,122.35,22.74,130.48,18.35,38.21,22.96,21.44,92.17,104.14,7.43,8.88,21.7,26.19,44.29,29.93Z"/>
    </g>
    <g id="leaf">
      <path id="leafbody" class="cls-3" d="M1929.57,125.67c-93.89,10.44-154.96,43.6-189.84,67.64-33.36,22.99-77.52,80.06-165.83,194.2-63.39,81.92-76.17,103.21-87.28,133.1-22.75,61.2-9.06,79.18-30.55,148.38-28.7,92.43-60.77,84.97-78.36,155.25-16.06,64.18-.59,119.77,30.35,230.97,12.92,46.42,26.57,94.47,56.73,152.74,14.88,28.75,92.79,180.38,148.38,168.02,31.69-7.05,15.84-58.43,65.46-120.01,55.76-69.2,117.72-56.35,185.47-130.92,29.76-32.76,45.96-66.22,54.55-87.28l10.91-912.09Z"/>
      <g id="veins">
        <path class="cls-2" d="M1953.57,154.04c-27.75,59.35-62.27,139.17-96.01,235.66-97.95,280.07-62.42,337.52-157.11,595.69-22.37,60.99-53.17,136.35-74.19,250.93-14.17,77.21-18.36,142.05-19.64,185.47"/>
        <path class="cls-2" d="M1921.72,225c-113.53,8.16-174.92,43.25-210.2,74.68-18.3,16.31-47.54,47.64-100.45,85.84-28.58,20.63-53.42,35.59-69.96,45.01"/>
        <path class="cls-2" d="M1876.86,336.46s49.83,29.9,49.71,39.94"/>
        <path class="cls-2" d="M1869.46,356.43c-16.92-.17-44.9.99-77.58,9.92-49.71,13.59-65.6,32.96-161.63,93.15-64.89,40.67-71.27,40.37-92.23,60.27-40,37.96-60.96,80.97-72.34,111.21"/>
        <path class="cls-2" d="M1835.66,455.47s89.27,57.87,88.6,114.44"/>
        <path class="cls-2" d="M1794.78,609.19s117,88.04,126.94,164.89"/>
        <path class="cls-2" d="M1762.44,774.08s142.3,106.04,156.73,220.83"/>
        <path class="cls-2" d="M1727.94,904.98s172.1,119.75,121.27,235.2"/>
        <path class="cls-2" d="M1691.18,1010.4s87.77,10.5,83.87,178.2"/>
        <path class="cls-2" d="M1654.8,1116.82s66.35-7.61,36.38,135.39"/>
        <path class="cls-2" d="M1826.89,484.07c-38.5,16.41-133.45,56.9-158.86,67.72-84.11,35.83-115.95,49.33-153.7,79.77-36.79,29.67-61.05,60.78-75.51,81.87"/>
        <path class="cls-2" d="M1788.7,638.57c-27.85,7.18-66.18,18.78-109.97,37.74-40.86,17.69-67.21,33.44-118.68,64.21-67.24,40.19-101.37,60.86-126.47,88.53-31.78,35.05-48.76,71.27-57.93,95.42"/>
        <path class="cls-2" d="M1765.97,757.19s-361.63,162.21-366.96,265.39"/>
        <path class="cls-2" d="M1734.22,884.49s-299.4,111.39-307.81,232.26"/>
        <path class="cls-2" d="M1694.82,1000.62s-239.1,105.83-238.01,191.36"/>
        <path class="cls-2" d="M1659.37,1101.79s-175.37,106.14-154.37,177.41"/>
        <path class="cls-2" d="M1632.85,1203.11s-103.7,97.49-74.15,146.74"/>
      </g>
    </g>
  </g>
</svg>