<?xml version="1.0" encoding="UTF-8"?>
<svg id="Layer_2" xmlns="http://www.w3.org/2000/svg" viewBox="0 0 293.36 339.6">
  <g id="Layer_1-2" data-name="Layer_1">
    <path d="M249.89,337.48c-9.73-2.52-18.36-7.35-26.7-12.76-10.29-6.67-19.95-14.17-28.94-22.49-11.57-10.7-18.94-23.88-22.66-39.18-2.12-8.7-3.17-17.45-1.6-26.35.66-3.73,1.4-7.46,2.37-11.11.9-3.39.23-6.26-2.03-8.82-4.35-4.95-8.72-9.88-13.08-14.82-36.53-41.47-73.08-82.91-109.56-124.41C32.66,60.42,17.76,43.18,2.81,26c-.51-.59-1.01-1.19-1.47-1.82-1.67-2.29-1.88-5.07-.04-7.2,2.2-2.53,4.65-4.87,7.2-7.06,3.1-2.67,6.41-5.11,9.65-7.62.61-.47,1.3-.86,1.98-1.24,2.98-1.64,5.58-1.46,7.96.95,2.58,2.62,5.01,5.4,7.34,8.25,17.4,21.37,34.75,42.78,52.12,64.17,12.07,14.87,24.13,29.74,36.2,44.61,11.19,13.78,22.36,27.57,33.57,41.32,10.92,13.39,21.91,26.73,32.8,40.15,2.2,2.72,4.92,3.76,8.28,3.78,4.82.02,9.7-.34,14.44.3,20.62,2.8,38.44,11.24,51.39,27.96,7.69,9.92,13.38,21.15,18.36,32.66,2.74,6.32,5.11,12.83,7.19,19.4,2.7,8.55,4.34,17.38,3.24,26.37-1.34,10.91-5.93,20.34-16.33,25.07-7.09,3.22-14.94,4.66-22.89,2.51-1.3-.35-2.6-.73-3.9-1.1Z"/>
  </g>
</svg>